<?xml version="1.0" encoding="iso-8859-1"?>
<!-- Generator: Adobe Illustrator 19.0.0, SVG Export Plug-In . SVG Version: 6.00 Build 0)  -->
<svg version="1.1" id="Layer_1" xmlns="http://www.w3.org/2000/svg" xmlns:xlink="http://www.w3.org/1999/xlink" x="0px" y="0px"
	 viewBox="0 0 479.999 479.999" style="enable-background:new 0 0 479.999 479.999;" xml:space="preserve">
<g>
	<g>
		<g>
			<path d="M328.345,0H151.653c-47.276,0-85.738,38.456-85.738,85.724v176.708c0,47.276,38.462,85.738,85.738,85.738h46.58
				l34.11,61.175c1.766,3.167,5.109,5.13,8.736,5.13c3.626,0,6.969-1.965,8.734-5.133l34.081-61.172h44.451
				c47.276,0,85.738-38.462,85.738-85.738V85.724C414.085,38.456,375.622,0,328.345,0z M394.085,262.431
				c0,36.248-29.49,65.738-65.738,65.738H278.02c-3.627,0-6.97,1.964-8.736,5.133l-28.208,50.632l-28.233-50.635
				c-1.766-3.167-5.108-5.13-8.734-5.13h-52.454c-36.248,0-65.738-29.49-65.738-65.738V85.724c0-36.24,29.49-65.724,65.738-65.724
				h176.692c36.248,0,65.738,29.483,65.738,65.724V262.431z"/>
			<path d="M316.592,377.691c-5.39-1.208-10.737,2.182-11.945,7.57c-1.208,5.389,2.181,10.737,7.57,11.945
				c38.07,8.534,51.889,21.29,51.889,27.782c0,5.703-9.964,14.825-32.226,22.348C307.715,455.502,275.398,460,240.884,460
				c-34.509,0-66.821-4.498-90.984-12.664c-22.26-7.523-32.224-16.645-32.224-22.348c0-7.152,14.508-18.479,46.362-26.446
				c5.358-1.34,8.615-6.77,7.275-12.128c-1.34-5.357-6.769-8.615-12.127-7.275c-39.665,9.921-61.51,26.204-61.51,45.848
				c0,36.116,72.043,55.012,143.208,55.012c71.173,0,143.223-18.896,143.223-55.012
				C384.106,404.248,360.129,387.451,316.592,377.691z"/>
		</g>
	</g>
</g>
<g>
</g>
<g>
</g>
<g>
</g>
<g>
</g>
<g>
</g>
<g>
</g>
<g>
</g>
<g>
</g>
<g>
</g>
<g>
</g>
<g>
</g>
<g>
</g>
<g>
</g>
<g>
</g>
<g>
</g>
</svg>
